<svg width="843" height="401" viewBox="0 0 843 401" fill="none" xmlns="http://www.w3.org/2000/svg">
<path d="M225.5 108.451C285.979 108.451 341.163 117.742 381.576 133.086L383.458 133.81C402.806 141.333 419.115 150.44 430.85 160.974L431.973 162.001C443.459 172.676 451 185.496 451 200.02C451 214.544 443.459 227.365 431.973 238.04L430.85 239.066C419.115 249.6 402.806 258.709 383.458 266.231L381.576 266.954C341.163 282.298 285.979 291.59 225.5 291.59C165.966 291.59 111.563 282.586 71.3291 267.669L69.4238 266.954C49.8819 259.534 33.3291 250.524 21.3008 240.082L20.1504 239.066C8.03515 228.19 0.000130842 215.013 0 200.02C9.19779e-05 185.027 8.03508 171.85 20.1504 160.974L21.3008 159.96C33.3291 149.517 49.8816 140.507 69.4238 133.086L71.3291 132.372C111.563 117.454 165.966 108.451 225.5 108.451ZM225.5 127.628C167.653 127.628 115.613 136.408 78.0107 150.348L76.2314 151.015C57.9226 157.967 43.6182 165.985 33.8887 174.427L32.9619 175.245C23.2075 184.001 19.1778 192.393 19.1777 200.02C19.1779 207.648 23.2074 216.039 32.9619 224.795L33.8887 225.614C43.6182 234.056 57.9228 242.073 76.2314 249.025L78.0107 249.693C115.613 263.633 167.653 272.413 225.5 272.413C284.265 272.413 337.037 263.351 374.769 249.025L376.528 248.349C394.578 241.329 408.604 233.264 418.038 224.795L418.937 223.976C428.041 215.516 431.822 207.409 431.822 200.02C431.822 192.631 428.041 184.525 418.937 176.065L418.038 175.245C408.604 166.776 394.578 158.712 376.528 151.692L374.769 151.015C337.037 136.689 284.265 127.628 225.5 127.628Z" fill="#96CA4B"/>
<path d="M112.73 5.78168C125.746 -1.69128 141.213 -1.37258 156.752 3.6264L158.211 4.10883C173.323 9.24811 189.452 19.0024 205.691 32.1274L207.267 33.4116C240.386 60.6113 275.436 102.973 305.209 154.254C335.454 206.35 354.961 258.534 361.807 301.025L362.118 303.008C365.242 323.44 365.465 342.046 362.157 357.423L361.825 358.905C358.27 374.141 350.879 387.019 338.27 394.258C325.66 401.498 310.751 401.424 295.704 396.868L294.248 396.413C279.203 391.572 263.11 382.078 246.879 369.172L245.309 367.912C211.728 340.771 176.035 297.88 145.789 245.785C116.016 194.503 96.6502 143.136 89.5225 101.013L89.1934 99.0141C85.8829 78.4659 85.4528 59.698 88.5333 44.1137L88.8428 42.6166C92.2588 26.735 99.7137 13.2548 112.73 5.78168ZM150.884 21.8364C138.391 17.8173 129.042 18.5294 122.358 22.3666C115.675 26.2041 110.381 33.8991 107.635 46.6674L107.385 47.8754C104.899 60.4714 105.069 76.7925 108.168 96.0278L108.476 97.893C115.135 137.232 133.503 186.427 162.421 236.236C191.798 286.835 226.066 327.741 257.397 353.064L258.864 354.241C273.996 366.271 288.028 374.315 300.116 378.204L301.277 378.567C313.19 382.175 322.166 381.391 328.641 377.673C335.115 373.956 340.287 366.617 343.101 354.554L343.365 353.372C346.023 341.017 346.032 324.911 343.122 305.865L342.831 304.012C336.444 264.368 317.955 214.403 288.578 163.803C259.66 113.994 226.003 73.578 195.073 48.1733L193.603 46.976C178.401 34.6893 164.272 26.3819 152.06 22.225L150.884 21.8364Z" fill="#96CA4B"/>
<path d="M294.248 3.62662C309.787 -1.3724 325.254 -1.69119 338.271 5.78189C351.286 13.2551 358.741 26.7353 362.157 42.6169L362.467 44.1139C365.547 59.6982 365.117 78.4662 361.807 99.0143L361.477 101.012C354.349 143.135 334.983 194.502 305.21 245.784C274.965 297.879 239.272 340.771 205.691 367.912L204.12 369.172C187.889 382.078 171.797 391.572 156.752 396.413L155.295 396.868C140.249 401.424 125.34 401.498 112.73 394.258C100.121 387.019 92.7301 374.142 89.1748 358.905L88.8428 357.423C85.5354 342.046 85.757 323.44 88.8809 303.008L89.1934 301.025C96.0391 258.534 115.545 206.35 145.79 154.255C175.563 102.973 210.613 60.6106 243.732 33.4108L245.309 32.1276C261.548 19.0025 277.677 9.24828 292.789 4.10904L294.248 3.62662ZM328.642 22.3668C321.958 18.5295 312.609 17.8175 300.116 21.8366L298.939 22.2252C286.727 26.3821 272.599 34.6889 257.397 46.9753L255.927 48.1735C224.997 73.5782 191.339 113.995 162.421 163.803C133.044 214.403 114.555 264.369 108.168 304.012L107.877 305.864C104.967 324.911 104.977 341.017 107.635 353.372L107.898 354.554C110.712 366.618 115.885 373.956 122.359 377.673C128.834 381.391 137.81 382.174 149.722 378.566L150.884 378.204C162.972 374.315 177.003 366.27 192.135 354.24L193.603 353.064C224.933 327.742 259.201 286.835 288.578 236.235C317.496 186.426 335.865 137.233 342.524 97.8932L342.832 96.027C345.931 76.7915 346.101 60.4707 343.614 47.8747L343.365 46.6676C340.619 33.8994 335.325 26.2043 328.642 22.3668Z" fill="#96CA4B"/>
<path d="M240 146H264V255H240V243.427H249.161V157.573H240V146Z" fill="#5F7FBF"/>
<path d="M212 158.467H202.872V243.533H212V255H188V147H212V158.467Z" fill="#5F7FBF"/>
<path d="M782.51 179.818L812.076 123.089H841.537L798.181 198.519L842.582 275.202H813.329L782.927 217.533L752.63 275.202H722.96L767.465 198.519L724.109 123.089H753.466L782.51 179.818Z" fill="#5F7FBF"/>
<path d="M683.678 236.025C683.678 232.473 682.946 229.339 681.484 226.622C680.021 223.906 677.966 221.468 675.32 219.309C672.534 217.29 669.226 215.479 665.395 213.877C661.634 212.205 657.42 210.708 652.754 209.384C645.58 207.365 638.963 204.892 632.904 201.967C626.914 198.972 621.795 195.629 617.546 191.937C613.298 188.176 609.954 183.928 607.517 179.192C605.149 174.386 603.965 168.988 603.965 162.998C603.965 156.521 605.358 150.705 608.144 145.551C610.93 140.328 614.691 135.87 619.427 132.179C624.163 128.557 629.665 125.806 635.933 123.925C642.271 121.975 648.923 121 655.888 121C663.271 121 670.131 122.149 676.469 124.448C682.877 126.676 688.449 129.811 693.185 133.85C697.921 137.959 701.647 142.87 704.363 148.581C707.149 154.222 708.542 160.491 708.542 167.386H683.678C683.329 163.555 682.494 160.073 681.17 156.939C679.917 153.735 678.141 150.984 675.842 148.685C673.474 146.457 670.584 144.715 667.171 143.462C663.828 142.138 659.962 141.477 655.574 141.477C651.744 141.477 648.192 141.999 644.918 143.044C641.714 144.019 638.928 145.412 636.56 147.223C634.192 149.103 632.347 151.367 631.023 154.014C629.7 156.66 629.038 159.62 629.038 162.894C629.108 166.376 630.013 169.441 631.755 172.087C633.496 174.664 635.829 176.928 638.754 178.878C641.749 180.828 645.162 182.535 648.993 183.997C652.893 185.46 656.967 186.818 661.216 188.072C666.579 189.604 671.803 191.519 676.887 193.818C682.041 196.047 686.777 198.763 691.095 201.967C696.458 206.006 700.742 210.847 703.946 216.489C707.219 222.06 708.856 228.503 708.856 235.816C708.856 242.572 707.428 248.527 704.572 253.681C701.786 258.835 698.025 263.118 693.289 266.531C688.483 270.083 682.912 272.765 676.574 274.576C670.235 276.317 663.549 277.188 656.515 277.188C649.062 277.188 641.714 276.038 634.471 273.74C627.227 271.372 620.924 267.959 615.561 263.501C610.616 259.323 606.681 254.412 603.756 248.771C600.9 243.129 599.437 236.652 599.368 229.339H624.441C624.79 234.005 625.765 238.08 627.367 241.562C629.038 244.975 631.302 247.796 634.157 250.024C636.943 252.323 640.217 254.029 643.978 255.144C647.809 256.258 651.987 256.815 656.515 256.815C660.345 256.815 663.897 256.363 667.171 255.457C670.514 254.552 673.405 253.193 675.842 251.383C678.21 249.641 680.091 247.482 681.484 244.905C682.946 242.328 683.678 239.368 683.678 236.025Z" fill="#5F7FBF"/>
<path d="M574.19 275.202H549.639V207.399H498.447V275.202H474V123.089H498.447V186.714H549.639V123.089H574.19V275.202Z" fill="#5F7FBF"/>
</svg>
