<svg width="868" height="411" viewBox="0 0 868 411" fill="none" xmlns="http://www.w3.org/2000/svg">
<path d="M225.5 108.451C285.979 108.451 341.163 117.742 381.576 133.086L383.458 133.81C402.806 141.333 419.115 150.44 430.85 160.974L431.973 162.001C443.459 172.676 451 185.496 451 200.02C451 214.544 443.459 227.365 431.973 238.04L430.85 239.066C419.115 249.6 402.806 258.709 383.458 266.231L381.576 266.954C341.163 282.298 285.979 291.59 225.5 291.59C165.966 291.59 111.563 282.586 71.3291 267.669L69.4238 266.954C49.8819 259.534 33.3291 250.524 21.3008 240.082L20.1504 239.066C8.03515 228.19 0.000130842 215.013 0 200.02C9.19779e-05 185.027 8.03508 171.85 20.1504 160.974L21.3008 159.96C33.3291 149.517 49.8816 140.507 69.4238 133.086L71.3291 132.372C111.563 117.454 165.966 108.451 225.5 108.451ZM225.5 127.628C167.653 127.628 115.613 136.408 78.0107 150.348L76.2314 151.015C57.9226 157.967 43.6182 165.985 33.8887 174.427L32.9619 175.245C23.2075 184.001 19.1778 192.393 19.1777 200.02C19.1779 207.648 23.2074 216.039 32.9619 224.795L33.8887 225.614C43.6182 234.056 57.9228 242.073 76.2314 249.025L78.0107 249.693C115.613 263.633 167.653 272.413 225.5 272.413C284.265 272.413 337.037 263.351 374.769 249.025L376.528 248.349C394.578 241.329 408.604 233.264 418.038 224.795L418.937 223.976C428.041 215.516 431.822 207.409 431.822 200.02C431.822 192.631 428.041 184.525 418.937 176.065L418.038 175.245C408.604 166.776 394.578 158.712 376.528 151.692L374.769 151.015C337.037 136.689 284.265 127.628 225.5 127.628Z" fill="#96CA4B"/>
<path d="M112.73 5.78168C125.746 -1.69128 141.213 -1.37258 156.752 3.6264L158.211 4.10883C173.323 9.24811 189.452 19.0024 205.691 32.1274L207.267 33.4116C240.386 60.6113 275.436 102.973 305.209 154.254C335.454 206.35 354.961 258.534 361.807 301.025L362.118 303.008C365.242 323.44 365.465 342.046 362.157 357.423L361.825 358.905C358.27 374.141 350.879 387.019 338.27 394.258C325.66 401.498 310.751 401.424 295.704 396.868L294.248 396.413C279.203 391.572 263.11 382.078 246.879 369.172L245.309 367.912C211.728 340.771 176.035 297.88 145.789 245.785C116.016 194.503 96.6502 143.136 89.5225 101.013L89.1934 99.0141C85.8829 78.4659 85.4528 59.698 88.5333 44.1137L88.8428 42.6166C92.2588 26.735 99.7137 13.2548 112.73 5.78168ZM150.884 21.8364C138.391 17.8173 129.042 18.5294 122.358 22.3666C115.675 26.2041 110.381 33.8991 107.635 46.6674L107.385 47.8754C104.899 60.4714 105.069 76.7925 108.168 96.0278L108.476 97.893C115.135 137.232 133.503 186.427 162.421 236.236C191.798 286.835 226.066 327.741 257.397 353.064L258.864 354.241C273.996 366.271 288.028 374.315 300.116 378.204L301.277 378.567C313.19 382.175 322.166 381.391 328.641 377.673C335.115 373.956 340.287 366.617 343.101 354.554L343.365 353.372C346.023 341.017 346.032 324.911 343.122 305.865L342.831 304.012C336.444 264.368 317.955 214.403 288.578 163.803C259.66 113.994 226.003 73.578 195.073 48.1733L193.603 46.976C178.401 34.6893 164.272 26.3819 152.06 22.225L150.884 21.8364Z" fill="#96CA4B"/>
<path d="M294.248 3.62662C309.787 -1.3724 325.254 -1.69119 338.271 5.78189C351.286 13.2551 358.741 26.7353 362.157 42.6169L362.467 44.1139C365.547 59.6982 365.117 78.4662 361.807 99.0143L361.477 101.012C354.349 143.135 334.983 194.502 305.21 245.784C274.965 297.879 239.272 340.771 205.691 367.912L204.12 369.172C187.889 382.078 171.797 391.572 156.752 396.413L155.295 396.868C140.249 401.424 125.34 401.498 112.73 394.258C100.121 387.019 92.7301 374.142 89.1748 358.905L88.8428 357.423C85.5354 342.046 85.757 323.44 88.8809 303.008L89.1934 301.025C96.0391 258.534 115.545 206.35 145.79 154.255C175.563 102.973 210.613 60.6106 243.732 33.4108L245.309 32.1276C261.548 19.0025 277.677 9.24828 292.789 4.10904L294.248 3.62662ZM328.642 22.3669C321.958 18.5295 312.609 17.8175 300.116 21.8366L298.939 22.2252C286.727 26.3821 272.599 34.6889 257.397 46.9752L255.927 48.1735C224.997 73.5782 191.339 113.995 162.421 163.803C133.044 214.403 114.555 264.369 108.168 304.012L107.877 305.864C104.967 324.911 104.977 341.017 107.635 353.372L107.898 354.554C110.712 366.618 115.885 373.956 122.359 377.673C128.834 381.391 137.81 382.174 149.722 378.566L150.884 378.204C162.972 374.315 177.003 366.27 192.135 354.24L193.603 353.064C224.933 327.742 259.201 286.835 288.578 236.235C317.496 186.426 335.865 137.233 342.524 97.8932L342.832 96.027C345.931 76.7915 346.101 60.4707 343.614 47.8747L343.365 46.6676C340.619 33.8994 335.325 26.2043 328.642 22.3669Z" fill="#96CA4B"/>
<path d="M240 146H264V255H240V243.427H249.161V157.573H240V146Z" fill="#5F7FBF"/>
<path d="M212 158.467H202.872V243.533H212V255H188V147H212V158.467Z" fill="#5F7FBF"/>
<path d="M807.51 180.818L837.076 124.089H866.537L823.181 199.519L867.582 276.202H838.329L807.927 218.533L777.63 276.202H747.96L792.465 199.519L749.109 124.089H778.466L807.51 180.818Z" fill="#5F7FBF"/>
<path d="M708.678 237.025C708.678 233.473 707.946 230.339 706.484 227.622C705.021 224.906 702.966 222.468 700.32 220.309C697.534 218.29 694.226 216.479 690.395 214.877C686.634 213.205 682.42 211.708 677.754 210.384C670.58 208.365 663.963 205.892 657.904 202.967C651.914 199.972 646.795 196.629 642.546 192.937C638.298 189.176 634.954 184.928 632.517 180.192C630.149 175.386 628.965 169.988 628.965 163.998C628.965 157.521 630.358 151.705 633.144 146.551C635.93 141.328 639.691 136.87 644.427 133.179C649.163 129.557 654.665 126.806 660.933 124.925C667.271 122.975 673.923 122 680.888 122C688.271 122 695.131 123.149 701.469 125.448C707.877 127.676 713.449 130.811 718.185 134.85C722.921 138.959 726.647 143.87 729.363 149.581C732.149 155.222 733.542 161.491 733.542 168.386H708.678C708.329 164.555 707.494 161.073 706.17 157.939C704.917 154.735 703.141 151.984 700.842 149.685C698.474 147.457 695.584 145.715 692.171 144.462C688.828 143.138 684.962 142.477 680.574 142.477C676.744 142.477 673.192 142.999 669.918 144.044C666.714 145.019 663.928 146.412 661.56 148.223C659.192 150.103 657.347 152.367 656.023 155.014C654.7 157.66 654.038 160.62 654.038 163.894C654.108 167.376 655.013 170.441 656.755 173.087C658.496 175.664 660.829 177.928 663.754 179.878C666.749 181.828 670.162 183.535 673.993 184.997C677.893 186.46 681.967 187.818 686.216 189.072C691.579 190.604 696.803 192.519 701.887 194.818C707.041 197.047 711.777 199.763 716.095 202.967C721.458 207.006 725.742 211.847 728.946 217.489C732.219 223.06 733.856 229.503 733.856 236.816C733.856 243.572 732.428 249.527 729.572 254.681C726.786 259.835 723.025 264.118 718.289 267.531C713.483 271.083 707.912 273.765 701.574 275.576C695.235 277.317 688.549 278.187 681.515 278.187C674.062 278.187 666.714 277.038 659.471 274.74C652.227 272.372 645.924 268.959 640.561 264.502C635.616 260.323 631.681 255.412 628.756 249.771C625.9 244.129 624.437 237.652 624.368 230.339H649.441C649.79 235.005 650.765 239.08 652.367 242.562C654.038 245.975 656.302 248.796 659.157 251.024C661.943 253.323 665.217 255.029 668.978 256.144C672.809 257.258 676.987 257.815 681.515 257.815C685.345 257.815 688.897 257.362 692.171 256.457C695.514 255.552 698.405 254.193 700.842 252.383C703.21 250.641 705.091 248.482 706.484 245.905C707.946 243.328 708.678 240.368 708.678 237.025Z" fill="#5F7FBF"/>
<path d="M599.19 276.202H574.639V208.399H523.447V276.202H499V124.089H523.447V187.714H574.639V124.089H599.19V276.202Z" fill="#5F7FBF"/>
<circle cx="439" cy="201" r="30" fill="#5F7FBF"/>
<circle cx="289" cy="381" r="30" fill="#5F7FBF"/>
</svg>
